<?xml version="1.0" standalone="no"?>
<!DOCTYPE svg PUBLIC "-//W3C//DTD SVG 20010904//EN"
 "http://www.w3.org/TR/2001/REC-SVG-20010904/DTD/svg10.dtd">
<svg version="1.0" xmlns="http://www.w3.org/2000/svg"
 width="405.000000pt" height="341.000000pt" viewBox="0 0 405.000000 341.000000"
 preserveAspectRatio="xMidYMid meet" class="text-white">

<g transform="translate(0.000000,341.000000) scale(0.100000,-0.100000)"
fill="#000000" stroke="none">
<path d="M370 2945 l0 -85 365 0 365 0 0 -150 0 -150 -34 0 c-44 0 -194 -44
-254 -74 -228 -116 -348 -334 -313 -567 33 -217 189 -355 516 -454 l85 -26 0
-330 0 -330 98 3 97 3 3 298 c2 296 2 298 23 292 11 -4 51 -17 87 -29 l67 -23
3 -271 2 -272 95 0 95 0 0 221 0 220 31 -21 c46 -34 105 -113 130 -177 30 -76
33 -239 7 -324 -50 -159 -187 -277 -385 -331 -113 -30 -355 -30 -466 0 -157
43 -351 159 -440 262 -19 22 -37 40 -40 40 -13 0 -77 -62 -77 -74 0 -21 131
-140 208 -190 239 -155 567 -203 868 -126 229 59 395 213 450 420 35 133 18
303 -42 421 -32 63 -119 156 -187 199 l-56 35 -1 183 0 182 248 0 248 0 318
-470 318 -470 115 0 c73 0 112 4 108 10 -3 5 -150 218 -325 472 l-319 463 74
11 c275 43 471 215 529 464 20 85 20 265 0 350 -52 220 -216 388 -449 457 -56
16 -137 18 -1112 21 l-1053 3 0 -86z m1110 -245 c0 -88 -3 -160 -7 -160 -5 0
-44 7 -88 15 -44 8 -81 14 -82 15 -2 0 -3 65 -3 145 l0 145 90 0 90 0 0 -160z
m951 146 c90 -19 162 -58 229 -122 64 -61 100 -121 125 -208 24 -82 17 -249
-14 -328 -47 -121 -145 -216 -279 -270 -56 -22 -67 -23 -439 -26 l-383 -3 0
226 0 226 31 -22 c17 -12 57 -48 88 -80 l57 -59 39 40 39 40 -58 59 c-32 32
-89 78 -127 102 l-68 44 -1 198 0 197 348 0 c259 0 364 -4 413 -14z m-1335
-1284 c-6 -6 -128 35 -204 70 -79 35 -174 101 -205 142 -61 79 -72 114 -72
226 0 100 2 109 34 175 48 97 124 171 231 224 47 23 114 47 150 55 l65 13 3
-450 c1 -248 0 -452 -2 -455z m334 883 l45 -11 3 -498 2 -497 -21 6 c-11 4
-51 17 -87 29 l-67 23 -3 485 -2 486 42 -6 c24 -3 63 -10 88 -17z"/>
<path d="M2977 1953 c-4 -3 -7 -24 -7 -45 l0 -38 396 0 395 0 -3 43 -3 42
-386 3 c-212 1 -388 -1 -392 -5z"/>
<path d="M2977 1723 c-4 -3 -7 -24 -7 -45 l0 -38 311 0 310 0 -3 43 -3 42
-301 3 c-165 1 -303 -1 -307 -5z"/>
<path d="M2970 1451 c0 -26 5 -41 16 -45 9 -3 104 -6 213 -6 219 0 235 4 229
55 l-3 30 -227 3 -228 2 0 -39z"/>
</g>
</svg>
