<!--?xml version="1.0" encoding="UTF-8"?-->
<svg
  xmlns="http://www.w3.org/2000/svg"
  class="col-span-4 -z-10 absolute w-[279px] top-40"
  xmlns:xlink="http://www.w3.org/1999/xlink"
  viewBox="0 0 194.16 153.36"
>
  <defs>
    <style>
      .cls-1 {
        fill: url(#linear-gradient-12);
      }

      .cls-1,
      .cls-2,
      .cls-3,
      .cls-4,
      .cls-5,
      .cls-6,
      .cls-7,
      .cls-8,
      .cls-9,
      .cls-10,
      .cls-11,
      .cls-12,
      .cls-13,
      .cls-14,
      .cls-15,
      .cls-16,
      .cls-17,
      .cls-18,
      .cls-19,
      .cls-20 {
        stroke-width: 0px;
      }

      .cls-2 {
        fill: url(#linear-gradient-17);
      }

      .cls-21 {
        opacity: 0.7;
      }

      .cls-21,
      .cls-22,
      .cls-23 {
        mix-blend-mode: screen;
      }

      .cls-24 {
        stroke: #fff;
        stroke-width: 0.36px;
      }

      .cls-24,
      .cls-25,
      .cls-26 {
        fill: none;
        stroke-miterlimit: 1;
      }

      .cls-3 {
        fill: url(#linear-gradient);
      }

      .cls-4 {
        fill: url(#linear-gradient-6);
      }

      .cls-27 {
        isolation: isolate;
      }

      .cls-5 {
        fill: url(#linear-gradient-15);
      }

      .cls-6 {
        fill: url(#linear-gradient-11);
      }

      .cls-7 {
        fill: url(#linear-gradient-5);
      }

      .cls-25 {
        font-family: BalloonBT-Bold, "Balloon Bd BT";
        font-size: 25px;
        font-weight: 700;
      }

      .cls-25,
      .cls-26 {
        stroke: #ccc;
        stroke-width: 0.59px;
      }

      .cls-28 {
        opacity: 0.58;
      }

      .cls-8 {
        fill: url(#linear-gradient-13);
      }

      .cls-22 {
        opacity: 0.49;
      }

      .cls-9 {
        fill: url(#linear-gradient-16);
      }

      .cls-23 {
        opacity: 0.51;
      }

      .cls-10 {
        fill: url(#linear-gradient-14);
      }

      .cls-11 {
        fill: url(#linear-gradient-2);
      }

      .cls-12 {
        fill: url(#linear-gradient-7);
      }

      .cls-13 {
        fill: url(#linear-gradient-3);
      }

      .cls-14 {
        fill: url(#linear-gradient-9);
      }

      .cls-15 {
        fill: url(#linear-gradient-8);
      }

      .cls-16 {
        fill: url(#linear-gradient-18);
      }

      .cls-17 {
        fill: #fff;
      }

      .cls-18 {
        fill: url(#linear-gradient-10);
      }

      .cls-19 {
        fill: url(#linear-gradient-4);
      }

      .cls-20 {
        fill: #959595;
      }

      .cls-26 {
        font-family: MuseoSans-100, "Museo Sans";
        font-size: 100px;
      }
    </style>
    <linearGradient
      id="linear-gradient"
      x1="68.7"
      y1="94.49"
      x2="68.7"
      y2="24.47"
      gradientUnits="userSpaceOnUse"
    >
      <stop offset="0" stop-color="#c6c6c6"></stop>
      <stop offset=".62" stop-color="#b1b1b1"></stop>
      <stop offset=".63" stop-color="#bebebe"></stop>
      <stop offset=".98" stop-color="#b8b8b8"></stop>
    </linearGradient>
    <linearGradient
      id="linear-gradient-2"
      x1="68.7"
      y1="94.49"
      x2="68.7"
      y2="24.47"
      gradientUnits="userSpaceOnUse"
    >
      <stop offset="0" stop-color="#a6a6a6"></stop>
      <stop offset=".5" stop-color="#838383"></stop>
      <stop offset=".54" stop-color="#898989"></stop>
      <stop offset=".67" stop-color="#999"></stop>
      <stop offset=".81" stop-color="#a3a3a3"></stop>
      <stop offset="1" stop-color="#a6a6a6"></stop>
    </linearGradient>
    <linearGradient
      id="linear-gradient-3"
      x1="68.7"
      y1="24.47"
      x2="68.7"
      y2="94.49"
      gradientUnits="userSpaceOnUse"
    >
      <stop offset="0" stop-color="#fff" stop-opacity=".77"></stop>
      <stop offset=".2" stop-color="#fff" stop-opacity=".65"></stop>
      <stop
        offset=".34"
        stop-color="rgba(255, 255, 255, .65)"
        stop-opacity=".65"></stop>
      <stop offset=".35" stop-color="#fff" stop-opacity=".65"></stop>
      <stop
        offset=".37"
        stop-color="rgba(255, 255, 255, .62)"
        stop-opacity=".62"></stop>
      <stop offset=".4" stop-color="rgba(255, 255, 255, .53)" stop-opacity=".53"
      ></stop>
      <stop
        offset=".43"
        stop-color="rgba(255, 255, 255, .39)"
        stop-opacity=".39"></stop>
      <stop offset=".47" stop-color="rgba(255, 255, 255, .2)" stop-opacity=".2"
      ></stop>
      <stop offset=".51" stop-color="#fff" stop-opacity="0"></stop>
      <stop
        offset=".59"
        stop-color="rgba(125, 125, 125, .09)"
        stop-opacity=".09"></stop>
      <stop offset="1" stop-color="#1b1b1b" stop-opacity=".16"></stop>
    </linearGradient>
    <linearGradient
      id="linear-gradient-4"
      x1="121.92"
      x2="121.92"
      xlink:href="#linear-gradient"></linearGradient>
    <linearGradient
      id="linear-gradient-5"
      x1="121.92"
      x2="121.92"
      xlink:href="#linear-gradient-2"></linearGradient>
    <linearGradient
      id="linear-gradient-6"
      x1="121.92"
      x2="121.92"
      xlink:href="#linear-gradient-3"></linearGradient>
    <linearGradient
      id="linear-gradient-7"
      x1="102.41"
      y1="111.88"
      x2="102.41"
      y2="39.47"
      xlink:href="#linear-gradient"></linearGradient>
    <linearGradient
      id="linear-gradient-8"
      x1="102.41"
      y1="111.88"
      x2="102.41"
      y2="39.47"
      xlink:href="#linear-gradient-2"></linearGradient>
    <linearGradient
      id="linear-gradient-9"
      x1="102.41"
      y1="39.47"
      x2="102.41"
      y2="111.88"
      xlink:href="#linear-gradient-3"></linearGradient>
    <linearGradient
      id="linear-gradient-10"
      x1="143.2"
      y1="58.24"
      x2="143.2"
      y2="56.09"
      xlink:href="#linear-gradient"></linearGradient>
    <linearGradient
      id="linear-gradient-11"
      x1="143.2"
      y1="58.24"
      x2="143.2"
      y2="56.09"
      xlink:href="#linear-gradient-2"></linearGradient>
    <linearGradient
      id="linear-gradient-12"
      x1="143.2"
      y1="56.09"
      x2="143.2"
      y2="58.24"
      xlink:href="#linear-gradient-3"></linearGradient>
    <linearGradient
      id="linear-gradient-13"
      x1="139.33"
      y1="61.93"
      x2="139.33"
      y2="59.78"
      xlink:href="#linear-gradient"></linearGradient>
    <linearGradient
      id="linear-gradient-14"
      x1="139.33"
      y1="61.93"
      x2="139.33"
      y2="59.78"
      xlink:href="#linear-gradient-2"></linearGradient>
    <linearGradient
      id="linear-gradient-15"
      x1="139.33"
      y1="59.78"
      x2="139.33"
      y2="61.93"
      xlink:href="#linear-gradient-3"></linearGradient>
    <linearGradient
      id="linear-gradient-16"
      x1="146.43"
      y1="54.66"
      x2="146.43"
      y2="52.51"
      xlink:href="#linear-gradient"></linearGradient>
    <linearGradient
      id="linear-gradient-17"
      x1="146.43"
      y1="54.66"
      x2="146.43"
      y2="52.51"
      xlink:href="#linear-gradient-2"></linearGradient>
    <linearGradient
      id="linear-gradient-18"
      x1="146.43"
      y1="52.51"
      x2="146.43"
      y2="54.66"
      xlink:href="#linear-gradient-3"></linearGradient>
  </defs>
  <g class="cls-27">
    <g id="Capa_2" data-name="Capa 2">
      <g id="Capa_1-2" data-name="Capa 1">
        <g>
          <path
            class="cls-3"
            d="M40.43,28.47v-4h56.54v4h-26.12v66.02h-4.3V28.47h-26.12Z"></path>
          <g class="cls-23">
            <path
              class="cls-11"
              d="M40.43,28.47v-4h56.54v4h-26.12v66.02h-4.3V28.47h-26.12Z"
            ></path>
          </g>
          <g class="cls-21">
            <path
              class="cls-13"
              d="M40.43,28.47v-4h56.54v4h-26.12v66.02h-4.3V28.47h-26.12Z"
            ></path>
          </g>
          <g class="cls-22">
            <path
              class="cls-17"
              d="M66.91,94.14V28.12s0-.36,0-.36h-26.12v.36c0-1.1,0-2.2,0-3.3v.36h55.83v-.36c0,1.1,0,2.2,0,3.3v-.36h-26.12s0,.36,0,.36v66.02-.36h-3.59s0,.73,0,.73h3.59s0-.36,0-.36V28.12v.36h26.12s0-.36,0-.36v-3.3s0-.36,0-.36h-55.84s0,.36,0,.36v3.3s0,.36,0,.36h26.12v-.36c0,7.44,0,14.89,0,22.33v43.68c0,.4,0,.42,0,0Z"
            ></path>
          </g>
          <text class="cls-26" transform="translate(39.65 94.49)"
            ><tspan x="0" y="0">T</tspan></text
          >
          <g class="cls-28">
            <path
              class="cls-20"
              d="M40.43,28.47v-2.24c0-.29-.1-1.61,0-1.7.17-.13.95,0,1.15,0h54.87c.77,0,.51.15.51,1.01v1.52c0,.28.13,1.01,0,1.25-.08.15-.05.08-.37.1-1.12.08-2.27,0-3.39,0h-22.36s0,.06,0,.06c0,7.84,0,15.68,0,23.53v40.83c0,.41.04.85,0,1.26s.07.25-.16.33c-.51.19-1.45,0-1.99,0-.5,0-1.54.21-1.99,0-.22-.11-.12.1-.16-.33-.1-1.12,0-2.3,0-3.42v-34.04c0-9.22,0-18.45,0-27.67,0-.16,0-.32,0-.49,0,0,0-.06,0-.06h-26.12s0,.12,0,.12c6.69,0,13.39,0,20.08,0h4.65c.23,0,1.35-.06,1.39-.02.14.16,0,1.04,0,1.25v62.8c0,.49-.14,1.22,0,1.7.02.06,0,.16,0,.22,0,0,0,.06,0,.06h4.3s0-.06,0-.06v-60.14c0-1.8,0-3.61,0-5.41,0-.49-.09-.33.22-.4.93-.23,2.23,0,3.18,0h22.72s0-.06,0-.06v-4s0-.06,0-.06h-56.54s0,.06,0,.06v4c0,.07,0,.07,0,0Z"
            ></path>
          </g>
        </g>
        <g>
          <path
            class="cls-19"
            d="M98.87,94.49V24.47h20.51c5.63,0,9.83.7,12.6,2.1,3,1.5,5.36,3.69,7.1,6.59,1.74,2.9,2.61,6.3,2.61,10.21,0,4.95-1.29,9.18-3.88,12.7s-5.96,5.73-10.13,6.64v.2c.49.52,1.03,1.35,1.61,2.49l15.67,29.1h-5.08l-16.6-31.01h-20.12v31.01h-4.3ZM103.17,59.48h18.99c4.56,0,8.2-1.49,10.94-4.47s4.1-6.86,4.1-11.65c0-3.09-.73-5.83-2.2-8.2-1.46-2.38-3.47-4.13-6.01-5.27-2.15-.94-5.42-1.42-9.81-1.42h-16.02v31.01Z"
          ></path>
          <g class="cls-23">
            <path
              class="cls-7"
              d="M98.87,94.49V24.47h20.51c5.63,0,9.83.7,12.6,2.1,3,1.5,5.36,3.69,7.1,6.59,1.74,2.9,2.61,6.3,2.61,10.21,0,4.95-1.29,9.18-3.88,12.7s-5.96,5.73-10.13,6.64v.2c.49.52,1.03,1.35,1.61,2.49l15.67,29.1h-5.08l-16.6-31.01h-20.12v31.01h-4.3ZM103.17,59.48h18.99c4.56,0,8.2-1.49,10.94-4.47s4.1-6.86,4.1-11.65c0-3.09-.73-5.83-2.2-8.2-1.46-2.38-3.47-4.13-6.01-5.27-2.15-.94-5.42-1.42-9.81-1.42h-16.02v31.01Z"
            ></path>
          </g>
          <g class="cls-21">
            <path
              class="cls-4"
              d="M98.87,94.49V24.47h20.51c5.63,0,9.83.7,12.6,2.1,3,1.5,5.36,3.69,7.1,6.59,1.74,2.9,2.61,6.3,2.61,10.21,0,4.95-1.29,9.18-3.88,12.7s-5.96,5.73-10.13,6.64v.2c.49.52,1.03,1.35,1.61,2.49l15.67,29.1h-5.08l-16.6-31.01h-20.12v31.01h-4.3ZM103.17,59.48h18.99c4.56,0,8.2-1.49,10.94-4.47s4.1-6.86,4.1-11.65c0-3.09-.73-5.83-2.2-8.2-1.46-2.38-3.47-4.13-6.01-5.27-2.15-.94-5.42-1.42-9.81-1.42h-16.02v31.01Z"
            ></path>
          </g>
          <g class="cls-22">
            <g>
              <path
                class="cls-17"
                d="M140.1,93.77c-3.75-7-7.49-13.99-11.24-20.99-1.71-3.19-3.42-6.38-5.13-9.57-.35-.65-.64-.44-1.4-.44h-19.52s0,.36,0,.36v31.01-.36h-3.59v.36c0-7.82,0-15.64,0-23.47V24.82v.36c6.39,0,12.79,0,19.19,0,4.65,0,9.73.06,13.92,2.33,6.81,3.69,9.8,11.42,8.78,18.89s-6.18,13.97-13.79,15.64c-.01,0,0,.36,0,.36,0,.25-.09.73,0,.98.1.27.47.55.64.79.38.55.69,1.14,1.01,1.72.18.34.36.67.54,1.01l3.34,6.21,9.26,17.19c.75,1.39,1.5,2.79,2.25,4.18v-.73h-4.28s0,.73,0,.73h4.28s.03-.67,0-.73c-4.7-8.72-9.39-17.44-14.09-26.16-.88-1.63-1.7-3.6-2.96-4.94v.36c0-.21,0-.41,0-.62v.36c7.14-1.57,12.21-7.31,13.58-14.42,1.15-5.95.33-12.65-3.59-17.45-4.51-5.52-11.25-6.43-17.97-6.45-3.14,0-6.28,0-9.43,0h-10.7s0,.36,0,.36v69.31s0,.36,0,.36h3.59s0-.36,0-.36v-31.01.36h18.36c.56,0,1.92-.25,2.36.09.21.16.37.7.5.93l.97,1.81,2.93,5.47,7.5,14.01c1.55,2.9,3.1,5.8,4.66,8.7-.1-.19.1-.54,0-.73Z"
              ></path>
              <path
                class="cls-17"
                d="M102.81,60.19h12.96c5.27,0,10.92.57,15.45-2.69,6.44-4.63,8.17-14.89,4.67-21.83-1.94-3.85-5.49-6.51-9.7-7.35-2.8-.56-5.67-.57-8.51-.57h-14.87s0,.36,0,.36v31.71c0,.4,0,.42,0,0v-31.71.36h12.66c5.69,0,12.03-.47,16.73,3.32,7.43,6,6.91,18.68-.41,24.55-4.32,3.47-9.68,3.11-14.87,3.11-4.7,0-9.41,0-14.11,0,0,0,0,.73,0,.73Z"
              ></path>
            </g>
          </g>
          <text class="cls-26" transform="translate(88.08 94.49)"
            ><tspan x="0" y="0">R</tspan></text
          >
          <g class="cls-28">
            <g>
              <path
                class="cls-20"
                d="M98.87,94.49v-49.46c0-4.49,0-8.98,0-13.47v-4.41c0-.73-.16-1.66,0-2.38.04-.18.02-.24.02-.24.2-.14,1.05,0,1.28,0h6.74c4.14,0,8.27,0,12.41,0,3.79,0,7.8.19,11.39,1.54,3.87,1.47,7.07,4.51,8.95,8.17,4.34,8.47,1.9,20.55-6.16,25.95-1.77,1.19-3.74,1.97-5.81,2.45,0,0,0,.06,0,.06,0,.69.84,1.35,1.18,1.95.21.36.4.73.59,1.1.5.94,1.01,1.88,1.52,2.82l5.86,10.88,6.01,11.15,1.78,3.31c.05.09.36.51.33.61.04-.15-1.33-.09-1.56-.09-1,0-2.16.17-3.15,0-.36-.06-.23.03-.44-.16-.54-.5-.91-1.7-1.25-2.34l-5.5-10.27c-2.11-3.94-4.22-7.89-6.33-11.83l-2.29-4.27c-.26-.49-.64-1.73-1.1-2.06-.36-.26-1.41-.07-1.87-.07h-18.29s0,.06,0,.06c0,9.94,0,19.88,0,29.82,0,.35.05,1.06-.07,1.13-.47.26-1.78,0-2.32,0h-1.9s0,.12,0,.12h4.3s0-.06,0-.06v-29.37c0-.3-.07-1.51.02-1.57.12-.09.68,0,.83,0h18.71c.57,0,.53-.04.79.44l9.99,18.65c1.7,3.18,3.4,6.36,5.1,9.53.33.61.67,1.74,1.19,2.22.55.51,2.35.16,3.11.16h2.05s0-.11,0-.12c-5.21-9.68-10.47-19.34-15.64-29.05-.08-.16-.16-.31-.25-.47-.3-.56-1.04-1.28-1.21-1.87l-.18-.25c.24-.09.49-.16.75-.22.37-.11.73-.2,1.09-.32.71-.23,1.4-.52,2.06-.84,2.83-1.38,5.18-3.61,6.88-6.24,2.68-4.13,3.57-9.21,3.13-14.07-.57-6.34-4.21-12.17-10.11-14.83-3.99-1.8-8.64-1.87-12.94-1.87h-19.68s0,.06,0,.06v70.02c0,.07,0,.07,0,0Z"
              ></path>
              <path
                class="cls-20"
                d="M103.17,59.54h12.69c5.25,0,10.92.58,15.38-2.77,5.88-4.43,7.64-13.69,4.52-20.27-1.86-3.92-5.37-6.68-9.61-7.52-2.77-.55-5.6-.56-8.41-.56h-14.57s0,.06,0,.06c0,9.06,0,18.13,0,27.19v3.82c0,.07,0,.07,0,0v-30.06c0-.17-.09-.69,0-.83s-.04.02.24-.05c.45-.11,1.06,0,1.52,0h11.51c4.08,0,8.47-.26,12.31,1.31,7.33,3,9.72,11.55,7.8,18.73-1.69,6.34-7.04,10.56-13.57,10.82s-12.77.02-19.13.02h-.68s0,.12,0,.12Z"
              ></path>
            </g>
          </g>
        </g>
        <g>
          <path
            class="cls-12"
            d="M85.56,103.14l2.33-3.27c.16.23.38.51.67.85.29.34.93.96,1.93,1.86,1,.9,2.04,1.68,3.14,2.37,1.09.68,2.49,1.31,4.18,1.88,1.7.57,3.43.85,5.19.85,3.58,0,6.57-1.28,8.99-3.83,2.42-2.55,3.63-5.88,3.63-9.99,0-2.12-.33-4.04-.99-5.76-.66-1.72-1.54-3.17-2.66-4.35s-2.4-2.25-3.85-3.25c-1.45-.99-2.97-1.91-4.58-2.76-1.6-.85-3.21-1.7-4.81-2.56-1.6-.86-3.13-1.83-4.58-2.91-1.45-1.07-2.73-2.26-3.85-3.56-1.12-1.3-2.01-2.9-2.66-4.79-.66-1.89-.99-4-.99-6.35,0-4.85,1.59-9.08,4.77-12.7,3.18-3.61,7.24-5.42,12.19-5.42,1.71,0,3.37.22,4.99.66s2.97.98,4.06,1.61,2.06,1.28,2.9,1.93c.84.65,1.46,1.2,1.85,1.66l.59.63-1.93,3.71c-.13-.16-.32-.38-.57-.66-.25-.28-.79-.76-1.62-1.44-.83-.68-1.7-1.29-2.6-1.81-.91-.52-2.05-1-3.43-1.44-1.38-.44-2.77-.66-4.16-.66-4,0-7.23,1.39-9.68,4.17-2.46,2.78-3.69,5.98-3.69,9.59,0,1.95.33,3.73.99,5.32.66,1.6,1.54,2.94,2.66,4.03,1.12,1.09,2.4,2.11,3.85,3.05,1.45.94,2.96,1.82,4.56,2.64,1.59.81,3.19,1.66,4.79,2.54,1.6.88,3.13,1.88,4.58,3s2.73,2.38,3.85,3.76,2,3.08,2.66,5.1c.66,2.02.99,4.28.99,6.79,0,5.18-1.5,9.51-4.5,12.99-3,3.48-6.97,5.22-11.91,5.22-2.08,0-4.1-.3-6.05-.9-1.96-.6-3.59-1.33-4.89-2.17-1.3-.85-2.45-1.7-3.45-2.56-1-.86-1.74-1.6-2.21-2.22l-.67-.88Z"
          ></path>
          <g class="cls-23">
            <path
              class="cls-15"
              d="M85.56,103.14l2.33-3.27c.16.23.38.51.67.85.29.34.93.96,1.93,1.86,1,.9,2.04,1.68,3.14,2.37,1.09.68,2.49,1.31,4.18,1.88,1.7.57,3.43.85,5.19.85,3.58,0,6.57-1.28,8.99-3.83,2.42-2.55,3.63-5.88,3.63-9.99,0-2.12-.33-4.04-.99-5.76-.66-1.72-1.54-3.17-2.66-4.35s-2.4-2.25-3.85-3.25c-1.45-.99-2.97-1.91-4.58-2.76-1.6-.85-3.21-1.7-4.81-2.56-1.6-.86-3.13-1.83-4.58-2.91-1.45-1.07-2.73-2.26-3.85-3.56-1.12-1.3-2.01-2.9-2.66-4.79-.66-1.89-.99-4-.99-6.35,0-4.85,1.59-9.08,4.77-12.7,3.18-3.61,7.24-5.42,12.19-5.42,1.71,0,3.37.22,4.99.66s2.97.98,4.06,1.61,2.06,1.28,2.9,1.93c.84.65,1.46,1.2,1.85,1.66l.59.63-1.93,3.71c-.13-.16-.32-.38-.57-.66-.25-.28-.79-.76-1.62-1.44-.83-.68-1.7-1.29-2.6-1.81-.91-.52-2.05-1-3.43-1.44-1.38-.44-2.77-.66-4.16-.66-4,0-7.23,1.39-9.68,4.17-2.46,2.78-3.69,5.98-3.69,9.59,0,1.95.33,3.73.99,5.32.66,1.6,1.54,2.94,2.66,4.03,1.12,1.09,2.4,2.11,3.85,3.05,1.45.94,2.96,1.82,4.56,2.64,1.59.81,3.19,1.66,4.79,2.54,1.6.88,3.13,1.88,4.58,3s2.73,2.38,3.85,3.76,2,3.08,2.66,5.1c.66,2.02.99,4.28.99,6.79,0,5.18-1.5,9.51-4.5,12.99-3,3.48-6.97,5.22-11.91,5.22-2.08,0-4.1-.3-6.05-.9-1.96-.6-3.59-1.33-4.89-2.17-1.3-.85-2.45-1.7-3.45-2.56-1-.86-1.74-1.6-2.21-2.22l-.67-.88Z"
            ></path>
          </g>
          <g class="cls-21">
            <path
              class="cls-14"
              d="M85.56,103.14l2.33-3.27c.16.23.38.51.67.85.29.34.93.96,1.93,1.86,1,.9,2.04,1.68,3.14,2.37,1.09.68,2.49,1.31,4.18,1.88,1.7.57,3.43.85,5.19.85,3.58,0,6.57-1.28,8.99-3.83,2.42-2.55,3.63-5.88,3.63-9.99,0-2.12-.33-4.04-.99-5.76-.66-1.72-1.54-3.17-2.66-4.35s-2.4-2.25-3.85-3.25c-1.45-.99-2.97-1.91-4.58-2.76-1.6-.85-3.21-1.7-4.81-2.56-1.6-.86-3.13-1.83-4.58-2.91-1.45-1.07-2.73-2.26-3.85-3.56-1.12-1.3-2.01-2.9-2.66-4.79-.66-1.89-.99-4-.99-6.35,0-4.85,1.59-9.08,4.77-12.7,3.18-3.61,7.24-5.42,12.19-5.42,1.71,0,3.37.22,4.99.66s2.97.98,4.06,1.61,2.06,1.28,2.9,1.93c.84.65,1.46,1.2,1.85,1.66l.59.63-1.93,3.71c-.13-.16-.32-.38-.57-.66-.25-.28-.79-.76-1.62-1.44-.83-.68-1.7-1.29-2.6-1.81-.91-.52-2.05-1-3.43-1.44-1.38-.44-2.77-.66-4.16-.66-4,0-7.23,1.39-9.68,4.17-2.46,2.78-3.69,5.98-3.69,9.59,0,1.95.33,3.73.99,5.32.66,1.6,1.54,2.94,2.66,4.03,1.12,1.09,2.4,2.11,3.85,3.05,1.45.94,2.96,1.82,4.56,2.64,1.59.81,3.19,1.66,4.79,2.54,1.6.88,3.13,1.88,4.58,3s2.73,2.38,3.85,3.76,2,3.08,2.66,5.1c.66,2.02.99,4.28.99,6.79,0,5.18-1.5,9.51-4.5,12.99-3,3.48-6.97,5.22-11.91,5.22-2.08,0-4.1-.3-6.05-.9-1.96-.6-3.59-1.33-4.89-2.17-1.3-.85-2.45-1.7-3.45-2.56-1-.86-1.74-1.6-2.21-2.22l-.67-.88Z"
            ></path>
          </g>
          <g class="cls-22">
            <path
              class="cls-17"
              d="M102.84,111.16c-6.52-.07-12.87-3.19-16.84-8.39v.73l.74-1.04c.23-.32.72-1.37,1.07-1.51.24-.1.8.72,1.09,1,.87.85,1.78,1.66,2.73,2.4,3.73,2.88,8.72,4.61,13.45,3.89,4.19-.63,7.78-3.48,9.54-7.31,1.33-2.91,1.58-6.29,1.24-9.45-.54-5.08-3.44-8.8-7.54-11.63-4.46-3.07-9.61-4.98-13.95-8.22-4.01-2.99-6.66-6.93-7.22-11.97s1.04-10.03,4.29-13.87c6.87-8.11,19.27-6.8,26.16.6v-.73l-1.26,2.43c-.27.51-.14.61-.55.33-.72-.48-1.33-1.23-2.02-1.77-3.34-2.61-7.6-4.07-11.85-3.6-7.26.81-11.94,7.41-11.94,14.43,0,3.53,1,7.03,3.48,9.63,3.15,3.32,7.4,5.28,11.38,7.4s7.82,4.42,10.61,8,3.75,8.45,3.37,12.86-1.98,8.3-4.95,11.37-6.87,4.38-11.02,4.42c0,0,0,.73,0,.73,3.7-.04,7.28-1.09,10.11-3.55s4.61-5.77,5.42-9.32c1.47-6.48.38-13.97-4.34-18.86-3.2-3.31-7.32-5.42-11.36-7.51-3.77-1.95-8.06-4.22-10.47-7.85-4.71-7.11-1.18-17.73,6.98-20.43,4.44-1.47,9.43-.49,13.28,2.06.96.63,1.86,1.35,2.71,2.12.05.05.81.87.86.86.05,0,.11-.25.15-.29.63-.65,1-1.93,1.43-2.74.04-.07.05-.67,0-.73-5.97-6.42-16.65-8.65-23.84-2.87-6.11,4.91-8.29,13.84-5.83,21.21,3.49,10.47,16.14,12.18,23.42,19.01s6,19.72-3.28,23.68c-4.82,2.06-10.72.75-14.99-2.03-1.18-.77-2.26-1.65-3.29-2.6-.18-.17-1.74-1.96-1.89-1.94-.23.03-.81,1.13-.95,1.33l-.95,1.33c-.04.06-.04.67,0,.73,3.97,5.2,10.32,8.32,16.84,8.39,0,0,0-.73,0-.73Z"
            ></path>
          </g>
          <text class="cls-26" transform="translate(81.03 110.66) scale(.81 1)"
            ><tspan x="0" y="0">S</tspan></text
          >
          <g class="cls-28">
            <path
              class="cls-20"
              d="M85.56,103.2l1.88-2.65c.09-.13.21-.42.35-.5.25-.14-.04-.06.27.12.28.16.57.7.82.96.36.38.75.73,1.14,1.08,3.75,3.42,8.57,5.78,13.76,5.5,4.37-.23,8.28-2.83,10.28-6.73,1.43-2.79,1.78-6.07,1.45-9.17-1.23-11.51-13.97-13.89-21.71-19.87-4.12-3.18-6.65-7.36-7.06-12.6s1.27-10.67,4.96-14.69c6.68-7.26,18.36-6.37,25.22.2.14.13,1.09,1.04,1.09,1.06.03.28-.5.96-.63,1.21l-.9,1.74c-.31.59-.23.92-.73.35-3.12-3.54-8.11-5.81-12.83-5.59-7.95.38-13.24,7.76-12.51,15.41,1.09,11.41,15.03,13.54,22.32,19.84,3.93,3.4,6.1,7.83,6.45,13.02s-.92,10.63-4.43,14.7c-6.63,7.7-18.26,6.04-25.53.23-1.39-1.11-2.58-2.33-3.66-3.75.02.03-.02.1,0,.12,5.41,7.09,15.98,11.31,24.44,7.21,7.23-3.5,9.91-12,9.11-19.52-.53-5-2.85-9.2-6.7-12.4-4.23-3.52-9.43-5.43-14.03-8.36-2.08-1.32-4.22-2.86-5.67-4.9-1.76-2.47-2.5-5.52-2.35-8.53.22-4.5,2.75-9,6.68-11.3,4.78-2.79,10.96-1.86,15.41,1.14,1.04.7,2.07,1.51,2.95,2.4.54.55.56,1.04.96.29l1.67-3.21s0-.11,0-.12c-2.95-3.16-6.68-5.41-10.97-6.19-4.56-.83-9.4-.03-13.14,2.8-6.32,4.77-8.78,13.63-6.39,21.1,3.43,10.72,16.18,12.4,23.58,19.34,7.12,6.68,5.84,20.9-4.2,24.09-5.26,1.67-11.23-.32-15.4-3.66-.94-.75-1.88-1.57-2.7-2.45-.12-.13-.82-1.14-.92-1.12-.06.01-.21.31-.24.34-.82.79-1.42,2-2.09,2.93-.02.03.02.09,0,.12Z"
            ></path>
          </g>
        </g>
        <g>
          <path
            class="cls-18"
            d="M140.47,58.24h-.21c-.2,0-.33-.04-.42-.13-.08-.09-.13-.24-.13-.44,0-.53.11-.92.32-1.18.21-.26.52-.39.94-.39h5.22c.15,0,.26.05.35.15.08.1.13.24.13.43,0,.52-.11.91-.32,1.18-.21.26-.53.4-.94.4h-4.94Z"
          ></path>
          <g class="cls-23">
            <path
              class="cls-6"
              d="M140.47,58.24h-.21c-.2,0-.33-.04-.42-.13-.08-.09-.13-.24-.13-.44,0-.53.11-.92.32-1.18.21-.26.52-.39.94-.39h5.22c.15,0,.26.05.35.15.08.1.13.24.13.43,0,.52-.11.91-.32,1.18-.21.26-.53.4-.94.4h-4.94Z"
            ></path>
          </g>
          <g class="cls-21">
            <path
              class="cls-1"
              d="M140.47,58.24h-.21c-.2,0-.33-.04-.42-.13-.08-.09-.13-.24-.13-.44,0-.53.11-.92.32-1.18.21-.26.52-.39.94-.39h5.22c.15,0,.26.05.35.15.08.1.13.24.13.43,0,.52-.11.91-.32,1.18-.21.26-.53.4-.94.4h-4.94Z"
            ></path>
          </g>
          <g class="cls-22">
            <path
              class="cls-17"
              d="M140.27,57.52s-.12-.03-.16-.02c0,0,0-.01,0-.01v-.03c0,.09,0,.18,0,.26-.06-.1.11-.48.17-.57.17-.26.44-.33.74-.34s.58,0,.87,0h3.33c.3,0,.67-.06.97,0,.01,0,.03,0,.04,0,0,0,.11.07.1.07-.02.01.06-.47,0-.18-.02.11-.04.22-.08.32-.14.36-.43.49-.8.5-.79.02-1.59,0-2.39,0h-2.76s0,.73,0,.73h4.48c.31,0,.72.05,1.02-.05.41-.14.52-.59.54-.98.01-.2,0-.4,0-.61,0-.13.05-.41-.07-.51-.07-.05-.18-.03-.26-.03h-4.23c-.36,0-.89-.08-1.22.08-.42.2-.47.73-.48,1.14,0,.23-.01.47,0,.7,0,.19,0,.24.2.25,0,0,.02-.72,0-.73Z"
            ></path>
          </g>
          <text class="cls-25" transform="translate(139.57 62.56)"
            ><tspan x="0" y="0">-</tspan></text
          >
          <g class="cls-28">
            <path
              class="cls-20"
              d="M140.47,58.17c-.12,0-.25,0-.37-.01-.4-.08-.4-.43-.37-.78.03-.41.2-.85.57-1.07.34-.2.75-.16,1.12-.16h3.46c.4,0,.81,0,1.21,0,.18,0,.35.01.48.18.26.35.05,1.12-.21,1.45-.32.4-.81.4-1.27.4h-4.61s0,.12,0,.12h4.7c.62,0,1.18-.14,1.4-.8.14-.43.29-1.42-.37-1.47-.35-.03-.72,0-1.07,0h-3.77c-.63,0-1.26.06-1.51.75-.11.29-.13.62-.12.93,0,.18.02.39.19.51s.39.09.57.09c0,0,0-.12,0-.12Z"
            ></path>
          </g>
        </g>
        <g>
          <path
            class="cls-8"
            d="M136.61,61.93h-.21c-.2,0-.34-.04-.42-.13-.08-.09-.13-.24-.13-.44,0-.53.11-.92.32-1.18.21-.26.53-.39.94-.39h5.22c.15,0,.26.05.35.15.08.1.13.24.13.43,0,.52-.11.91-.32,1.18-.21.26-.52.4-.94.4h-4.94Z"
          ></path>
          <g class="cls-23">
            <path
              class="cls-10"
              d="M136.61,61.93h-.21c-.2,0-.34-.04-.42-.13-.08-.09-.13-.24-.13-.44,0-.53.11-.92.32-1.18.21-.26.53-.39.94-.39h5.22c.15,0,.26.05.35.15.08.1.13.24.13.43,0,.52-.11.91-.32,1.18-.21.26-.52.4-.94.4h-4.94Z"
            ></path>
          </g>
          <g class="cls-21">
            <path
              class="cls-5"
              d="M136.61,61.93h-.21c-.2,0-.34-.04-.42-.13-.08-.09-.13-.24-.13-.44,0-.53.11-.92.32-1.18.21-.26.53-.39.94-.39h5.22c.15,0,.26.05.35.15.08.1.13.24.13.43,0,.52-.11.91-.32,1.18-.21.26-.52.4-.94.4h-4.94Z"
            ></path>
          </g>
          <g class="cls-22">
            <path
              class="cls-17"
              d="M136.4,61.21s-.12-.03-.16-.02c0,0,0-.01,0-.01v-.03c0,.09,0,.18,0,.26-.06-.1.11-.48.17-.57.17-.26.44-.33.74-.34s.58,0,.87,0h3.33c.3,0,.67-.06.97,0,.01,0,.03,0,.04,0,0,0,.11.07.1.07-.02.01.06-.47,0-.18-.02.11-.04.22-.08.32-.14.36-.43.49-.8.5-.79.02-1.59,0-2.39,0h-2.76s0,.73,0,.73h4.48c.31,0,.72.05,1.02-.05.41-.14.52-.59.54-.97.01-.2,0-.41,0-.61,0-.13.05-.41-.07-.51-.07-.05-.18-.03-.26-.03h-4.23c-.36,0-.89-.08-1.22.08-.42.2-.47.73-.48,1.14,0,.23-.01.47,0,.7,0,.19,0,.24.2.25,0,0,.02-.72,0-.73Z"
            ></path>
          </g>
          <text class="cls-25" transform="translate(135.7 66.25)"
            ><tspan x="0" y="0">-</tspan></text
          >
          <g class="cls-28">
            <path
              class="cls-20"
              d="M136.61,61.87c-.12,0-.25,0-.37-.01-.4-.08-.4-.43-.37-.78.03-.41.2-.85.57-1.07.34-.2.75-.16,1.12-.16h3.46c.4,0,.81,0,1.21,0,.18,0,.35.01.48.18.26.35.05,1.12-.21,1.45-.32.4-.81.4-1.27.4h-4.61s0,.12,0,.12h4.7c.62,0,1.18-.14,1.4-.8.14-.43.29-1.42-.37-1.47-.35-.03-.72,0-1.07,0h-3.77c-.63,0-1.26.06-1.51.75-.11.29-.13.62-.12.93,0,.18.02.39.19.51s.39.09.57.09c0,0,0-.12,0-.12Z"
            ></path>
          </g>
        </g>
        <g>
          <path
            class="cls-9"
            d="M143.71,54.66h-.21c-.2,0-.33-.04-.42-.13-.08-.09-.13-.24-.13-.44,0-.53.11-.92.32-1.18.21-.26.52-.39.94-.39h5.22c.15,0,.26.05.35.15.08.1.13.24.13.43,0,.52-.11.91-.32,1.18-.21.26-.53.4-.94.4h-4.94Z"
          ></path>
          <g class="cls-23">
            <path
              class="cls-2"
              d="M143.71,54.66h-.21c-.2,0-.33-.04-.42-.13-.08-.09-.13-.24-.13-.44,0-.53.11-.92.32-1.18.21-.26.52-.39.94-.39h5.22c.15,0,.26.05.35.15.08.1.13.24.13.43,0,.52-.11.91-.32,1.18-.21.26-.53.4-.94.4h-4.94Z"
            ></path>
          </g>
          <g class="cls-21">
            <path
              class="cls-16"
              d="M143.71,54.66h-.21c-.2,0-.33-.04-.42-.13-.08-.09-.13-.24-.13-.44,0-.53.11-.92.32-1.18.21-.26.52-.39.94-.39h5.22c.15,0,.26.05.35.15.08.1.13.24.13.43,0,.52-.11.91-.32,1.18-.21.26-.53.4-.94.4h-4.94Z"
            ></path>
          </g>
          <g class="cls-22">
            <path
              class="cls-17"
              d="M143.5,53.95s-.12-.03-.16-.02c0,0,0-.01,0-.01v-.03c0,.09,0,.18,0,.26-.06-.1.11-.48.17-.57.17-.26.44-.33.74-.34s.58,0,.87,0h3.33c.3,0,.67-.06.97,0,.01,0,.03,0,.04,0-.01,0,.11.07.1.07-.02.01.06-.47,0-.18-.02.11-.04.22-.08.32-.14.36-.43.49-.8.5-.79.02-1.59,0-2.39,0h-2.76s0,.73,0,.73h4.48c.31,0,.72.05,1.03-.05.41-.14.52-.59.54-.98.01-.2,0-.4,0-.61,0-.13.05-.41-.07-.51-.07-.05-.18-.03-.26-.03h-4.23c-.36,0-.89-.08-1.22.08-.42.2-.47.73-.48,1.14,0,.23-.01.47,0,.7,0,.19,0,.24.2.25,0,0,.02-.72,0-.73Z"
            ></path>
          </g>
          <text class="cls-25" transform="translate(142.8 58.98)"
            ><tspan x="0" y="0">-</tspan></text
          >
          <g class="cls-28">
            <path
              class="cls-20"
              d="M143.71,54.6c-.12,0-.25,0-.37-.01-.4-.08-.4-.43-.37-.78.03-.41.2-.85.57-1.07.34-.2.75-.16,1.12-.16h3.46c.4,0,.81,0,1.21,0,.18,0,.36.01.48.18.26.35.05,1.12-.21,1.45-.32.4-.81.4-1.28.4h-4.61s0,.12,0,.12h4.7c.62,0,1.18-.14,1.4-.8.14-.43.29-1.42-.38-1.47-.35-.03-.72,0-1.07,0h-3.77c-.63,0-1.26.06-1.51.75-.11.29-.13.62-.12.93,0,.18.02.39.19.51s.39.09.57.09c0,0,0-.12,0-.12Z"
            ></path>
          </g>
        </g>
        <rect class="cls-24" x=".18" y=".18" width="193.8" height="153"></rect>
      </g>
    </g>
  </g>
</svg>
